<svg width="32" height="32" viewBox="0 0 32 32" fill="none" xmlns="http://www.w3.org/2000/svg">
  <circle cx="16" cy="16" r="15" fill="#0066FF" fill-opacity="0.1" />
  <circle cx="16" cy="16" r="14" stroke="#0066FF" stroke-width="1" stroke-opacity="0.8" />
  <circle cx="16" cy="16" r="11" stroke="#0066FF" stroke-width="0.75" stroke-opacity="0.6" />
  <circle cx="16" cy="16" r="8" stroke="#0066FF" stroke-width="0.5" stroke-opacity="0.4" />
  
  <!-- Letra A simplificada -->
  <path d="M12.5 11L15 20H13.75L13.125 18.125H10.625L10 20H8.75L11.25 11H12.5ZM11.875 12.5L10.9375 16.875H12.8125L11.875 12.5Z" fill="#0066FF" />
  
  <!-- Letra D simplificada -->
  <path d="M16.25 11H18.75C20 11 20.9375 11.3125 21.5625 11.9375C22.1875 12.5625 22.5 13.5 22.5 15C22.5 16.5 22.1875 17.4375 21.5625 18.0625C20.9375 18.6875 20 19 18.75 19H16.25V11ZM17.5 12.5V17.5H18.75C19.5833 17.5 20.2083 17.2917 20.625 16.875C21.0417 16.4583 21.25 15.8333 21.25 15C21.25 14.1667 21.0417 13.5417 20.625 13.125C20.2083 12.7083 19.5833 12.5 18.75 12.5H17.5Z" fill="#0066FF" />
  
  <!-- Letra O simplificada -->
  <path d="M23.75 15C23.75 14.1667 23.9583 13.5417 24.375 13.125C24.7917 12.7083 25.4167 12.5 26.25 12.5C27.0833 12.5 27.7083 12.7083 28.125 13.125C28.5417 13.5417 28.75 14.1667 28.75 15C28.75 15.8333 28.5417 16.4583 28.125 16.875C27.7083 17.2917 27.0833 17.5 26.25 17.5C25.4167 17.5 24.7917 17.2917 24.375 16.875C23.9583 16.4583 23.75 15.8333 23.75 15ZM25 15C25 15.5 25.1042 15.875 25.3125 16.125C25.5208 16.375 25.8333 16.5 26.25 16.5C26.6667 16.5 26.9792 16.375 27.1875 16.125C27.3958 15.875 27.5 15.5 27.5 15C27.5 14.5 27.3958 14.125 27.1875 13.875C26.9792 13.625 26.6667 13.5 26.25 13.5C25.8333 13.5 25.5208 13.625 25.3125 13.875C25.1042 14.125 25 14.5 25 15Z" fill="#0066FF" />
  
  <!-- Línea de código simplificada -->
  <path d="M10 21.25H22" stroke="#0066FF" stroke-width="0.75" stroke-linecap="round" />
  <path d="M10 22.5H18" stroke="#0066FF" stroke-width="0.75" stroke-linecap="round" />
  <path d="M10 23.75H20" stroke="#0066FF" stroke-width="0.75" stroke-linecap="round" />
</svg>
